{"title":"Hardcore Innocence 2 (2001)","uid":6714506,"size":1331723040,"categoryP":"porn","categoryS":"movies","magnet":"?xt=urn:btih:1eb74e08a607a2299eccd140257fc2d9659b630b&amp;dn=Hardcore+Innocence+2+%282001%29&amp;tr=udp%3A%2F%2Ftracker.openbittorrent.com%3A80&amp;tr=udp%3A%2F%2Fopen.demonii.com%3A1337&amp;tr=udp%3A%2F%2Ftracker.coppersurfer.tk%3A6969&amp;tr=udp%3A%2F%2Fexodus.desync.com%3A6969","seeders":0,"leechers":1,"uploader":"silviuss","files":5,"time":1317489028,"description":"Hardcore Innocence 2 (2001)\n\nCover: &lt;a href=&quot;\nhttp://imagebb.org/view.php?filename=867hardcoreinnocence22001.jpg&quot; rel=&quot;nofollow&quot; target=&quot;_NEW&quot;&gt;\nhttp://imagebb.org/view.php?filename=867hardcoreinnocence22001.jpg&lt;/a&gt;\n\nPreview: &lt;a href=&quot;\nhttp://imagebb.org/view.php?filename=730Hardcore_Innocence_2_S.jpg&quot; rel=&quot;nofollow&quot; target=&quot;_NEW&quot;&gt;\nhttp://imagebb.org/view.php?filename=730Hardcore_Innocence_2_S.jpg&lt;/a&gt; - Scene 1 &lt;a href=&quot;\nhttp://imagebb.org/view.php?filename=553Hardcore_Innocence_2_S.jpg&quot; rel=&quot;nofollow&quot; target=&quot;_NEW&quot;&gt;\nhttp://imagebb.org/view.php?filename=553Hardcore_Innocence_2_S.jpg&lt;/a&gt; - Scene 2 &lt;a href=&quot;\nhttp://imagebb.org/view.php?filename=357Hardcore_Innocence_2_S.jpg&quot; rel=&quot;nofollow&quot; target=&quot;_NEW&quot;&gt;\nhttp://imagebb.org/view.php?filename=357Hardcore_Innocence_2_S.jpg&lt;/a&gt; - Scene 3 &lt;a href=&quot;\nhttp://imagebb.org/view.php?filename=643Hardcore_Innocence_2_S.jpg&quot; rel=&quot;nofollow&quot; target=&quot;_NEW&quot;&gt;\nhttp://imagebb.org/view.php?filename=643Hardcore_Innocence_2_S.jpg&lt;/a&gt; - Scene 4 &lt;a href=&quot;\nhttp://imagebb.org/view.php?filename=105Hardcore_Innocence_2_S.jpg&quot; rel=&quot;nofollow&quot; target=&quot;_NEW&quot;&gt;\nhttp://imagebb.org/view.php?filename=105Hardcore_Innocence_2_S.jpg&lt;/a&gt; - Scene 5\n\nInfo Scene 1:\nFormat                           : Windows Media\nFile size                        : 131 MiB\nDuration                         : 19mn 44s\nOverall bit rate mode            : Variable\nOverall bit rate                 : 927 Kbps\nMaximum Overall bit rate         : 1 463 Kbps\nMovie name                       : Hardcore Innocence #2\nEncoded date                     : UTC 2010-02-07 08:02:42.265\n\nVideo\nID                               : 2\nFormat                           : WMV2\nCodec ID                         : WMV2\nCodec ID/Info                    : Windows Media Video 8\nDescription of the codec         : Windows Media Video V8\nDuration                         : 19mn 44s\nBit rate mode                    : Variable\nBit rate                         : 787 Kbps\nWidth                            : 480 pixels\nHeight                           : 352 pixels\nDisplay aspect ratio             : 4:3\nFrame rate                       : 29.970 fps\nBit depth                        : 8 bits\nBits/(Pixel*Frame)               : 0.155\nStream size                      : 111 MiB (85%)\nLanguage                         : English (US)\n\nAudio\nID                               : 1\nFormat                           : WMA\nFormat version                   : Version 2\nCodec ID                         : 161\nCodec ID/Info                    : Windows Media Audio\nDescription of the codec         : Windows Media Audio 9.2 - 128 kbps, 48 kHz, stereo (A/V) 1-pass CBR\nDuration                         : 19mn 44s\nBit rate mode                    : Constant\nBit rate                         : 128 Kbps\nChannel(s)                       : 2 channels\nSampling rate                    : 48.0 KHz\nBit depth                        : 16 bits\nStream size                      : 18.1 MiB (14%)\nLanguage                         : English (US)\n\n","torrent":{"xt":"urn:btih:1eb74e08a607a2299eccd140257fc2d9659b630b","amp;dn":"Hardcore+Innocence+2+%282001%29","amp;tr":["udp%3A%2F%2Ftracker.openbittorrent.com%3A80","udp%3A%2F%2Fopen.demonii.com%3A1337","udp%3A%2F%2Ftracker.coppersurfer.tk%3A6969","udp%3A%2F%2Fexodus.desync.com%3A6969"],"infoHash":"1eb74e08a607a2299eccd140257fc2d9659b630b","infoHashBuffer":{"type":"Buffer","data":[30,183,78,8,166,7,162,41,158,204,209,64,37,127,194,217,101,155,99,11]},"announce":[],"urlList":[]}}